<svg width="363" height="230" fill="none" xmlns="http://www.w3.org/2000/svg"><path id="sign" d="M2 75.738c2.217-17.773 2.74-21.92 4.789-38.48.435-3.522 1.368-14.11 1.368-10.56 0 3.27.665 6.478 1.539 9.62 3.345 12.024 10.927 23.99 23.002 28.518 7.835 2.938 17.43 3.986 24.755-.898 7.819-5.213 14.23-14.475 16.889-23.43.064-.215.77-3.768.77-2.18 0 5.44-.092 10.884.684 16.29 1.136 7.926 3.699 15.577 5.045 23.472 1.512 8.872 2.104 17.813 1.924 26.807-.176 8.795-1.263 19.047-8.765 24.969-5.36 4.232-11.61-13.796-13.34-16.845-1.893-3.336-3.795-6.659-5.43-10.133-1.442-3.065-.177-2.43 2.95-2.01 17.623 2.371 38.358 4.294 55.71-.342 6.071-1.622 12.933-3.7 16.034-9.662 2.777-5.342 3.504-11.22 3.634-17.145.311-14.181 1.08-31.288-6.713-43.824-6.265-10.08-13.16 7.968-14.964 12.399-10.788 26.487-7.525 56.308-7.525 84.27 0 9.999-4.339 29.111 9.492 31.169 19.72 2.933 41.561-11.021 54.384-24.499 16.425-17.262 17.089-47.22 6.713-67.382-11.791-22.912-40.312-37.15-65.629-36.898-14.933.149-31.915 2.432-42.67 14.195-15.959 17.455-17.867 46.493-16.418 68.75 1.851 28.444 27.207 46.313 52.632 53.743 16.994 4.967 34.857 8.988 52.46 10.988 19.092 2.17 40.34 2.973 59.088-1.966 26.09-6.874 40.199-35.999 45.491-60.114 4.02-18.314 5.514-37.334 2.352-55.881-2.518-14.768-8.006-28.709-11.501-43.226-.956-3.97-2.305-8.2-2.48-12.313-.116-2.723-.293.122-.428 1.41-3.275 31.354-11.384 60.65-19.924 90.941-10.193 36.159-21.189 74.883-18.726 112.874.402 6.212 2.194 13.002 8.251 15.99 12.11 5.974 30.326 2.445 42.627-.214 22.343-4.828 43.796-13.217 64.133-23.558 11.525-5.86 24.963-12.123 33.948-21.762 10.306-11.055-16.721-13.701-22.66-14.751-64.853-11.462-129.998 3.01-194.964 4.575-21.297.513-42.013.04-62.85-4.66-7.54-1.701-14.949-3.86-22.575-5.131" stroke="currentColor" stroke-width="4" stroke-linecap="round" stroke-linejoin="round"/></svg>